<?xml version="1.0" encoding="UTF-8"?>
<svg width="36px" height="36px" viewBox="0 0 36 36" version="1.1" xmlns="http://www.w3.org/2000/svg" xmlns:xlink="http://www.w3.org/1999/xlink">
    <!-- Generator: Sketch 46.2 (44496) - http://www.bohemiancoding.com/sketch -->
    <title>Group 8</title>
    <desc>Created with Sketch.</desc>
    <defs></defs>
    <g id="Page-1" stroke="none" stroke-width="1" fill="none" fill-rule="evenodd">
        <g id="Clientes" transform="translate(-301.000000, -208.000000)">
            <g id="Group-8" transform="translate(301.000000, 208.000000)">
                <circle id="Oval-4" fill="#8FD33F" cx="18" cy="18" r="18"></circle>
                <g id="coin" transform="translate(7.000000, 14.000000)" fill-rule="nonzero">
                    <path d="M20,4.54054054 C20,7.04821622 15.5227586,9.08108108 10,9.08108108 C4.47724138,9.08108108 0,7.04821622 0,4.54054054 C0,2.03286486 4.47724138,0 10,0 C15.5227586,0 20,2.03286486 20,4.54054054" id="XMLID_120_" fill="#FCC62D"></path>
                    <path d="M10,7.78378378 C4.73758621,7.78378378 1.37931034,5.86281081 1.37931034,4.54054054 C1.37931034,3.21827027 4.73758621,0.972972973 10,0.972972973 C15.2624138,0.972972973 18.6206897,3.21827027 18.6206897,4.54054054 C18.6206897,5.86281081 15.2624138,7.78378378 10,7.78378378" id="XMLID_119_" fill="#FFD949"></path>
                    <path d="M12.9451724,4.77178378 C13.2889655,4.70335135 13.4906897,4.50389189 13.4162069,4.27654054 L13.3368966,4.03362162 C13.2782759,3.85524324 13.0513793,3.70605405 12.7734483,3.63210811 C12.3958621,2.87221622 11.4317241,2.59718919 10,2.59718919 C9.93206897,2.59718919 9.86551724,2.59848649 9.80034483,2.60108108 C9.31172414,2.62021622 8.82413793,2.57545946 8.4437931,2.44475676 C8.28896552,2.39156757 8.16275862,2.33578378 8.07931034,2.27772973 C8.04137931,2.25178378 7.95034483,2.26832432 7.95034483,2.30140541 C7.95034483,2.35913514 7.95482759,2.42756757 7.96827586,2.50313514 C8.02034483,2.7972973 7.95827586,2.75318919 7.64896552,3.0467027 C7.46931034,3.2172973 7.32655172,3.41481081 7.22310345,3.63275676 C6.94655172,3.70702703 6.72103448,3.85589189 6.66310345,4.03362162 L6.58344828,4.27654054 C6.50931034,4.50421622 6.71068966,4.70367568 7.05448276,4.77178378 C7.15275862,5.35297297 7.57275862,5.86475676 8.48965517,6.14594595 L8.43931034,6.55491892 C8.4262069,6.66421622 8.32551724,6.76540541 8.17965517,6.8147027 L6.33103448,7.44227027 C7.41068966,7.65535135 8.64137931,7.78378378 10,7.78378378 C11.3393103,7.78378378 12.5544828,7.65891892 13.6231034,7.45167568 L11.8148276,6.81567568 C11.6717241,6.76540541 11.5737931,6.66518919 11.5606897,6.55783784 L11.5103448,6.14594595 C12.4268966,5.86475676 12.8468966,5.35297297 12.9451724,4.77178378" id="XMLID_118_" fill="#F0C41B"></path>
                    <path d="M10,9.08108108 C4.47724138,9.08108108 0,7.04821622 0,4.54054054 L0,7.45945946 C0,9.96713514 4.47724138,12 10,12 C15.5227586,12 20,9.96713514 20,7.45945946 L20,4.54054054 C20,7.04821622 15.5227586,9.08108108 10,9.08108108" id="XMLID_117_" fill="#E4AF18"></path>
                    <path d="M1.03448276,6.552 L1.03448276,9.47091892 C1.23827586,9.65772973 1.46793103,9.83740541 1.72413793,10.0086486 L1.72413793,7.08972973 C1.46793103,6.91848649 1.23827586,6.73881081 1.03448276,6.552" id="XMLID_116_" fill="#CE9912"></path>
                    <path d="M18.2758621,7.08940541 L18.2758621,10.0083243 C18.532069,9.83740541 18.7617241,9.65740541 18.9655172,9.47059459 L18.9655172,6.55167568 C18.7617241,6.73881081 18.532069,6.91848649 18.2758621,7.08940541" id="XMLID_115_" fill="#CE9912"></path>
                    <path d="M2.4137931,7.49708108 L2.4137931,10.416 C2.63172414,10.5311351 2.86172414,10.6410811 3.10344828,10.7458378 L3.10344828,7.82691892 C2.86172414,7.72216216 2.63172414,7.61221622 2.4137931,7.49708108" id="XMLID_114_" fill="#CE9912"></path>
                    <path d="M16.8965517,7.82691892 L16.8965517,10.7458378 C17.1382759,10.6410811 17.3682759,10.5311351 17.5862069,10.416 L17.5862069,7.49708108 C17.3682759,7.61221622 17.1382759,7.72216216 16.8965517,7.82691892" id="XMLID_113_" fill="#CE9912"></path>
                    <path d="M3.79310345,8.09935135 L3.79310345,11.0182703 C4.01586207,11.0983784 4.24517241,11.1745946 4.48275862,11.2462703 L4.48275862,8.32735135 C4.24517241,8.25567568 4.01586207,8.17945946 3.79310345,8.09935135" id="XMLID_112_" fill="#CE9912"></path>
                    <path d="M15.5172414,8.32702703 L15.5172414,11.2459459 C15.7548276,11.1745946 15.9841379,11.0980541 16.2068966,11.0179459 L16.2068966,8.09902703 C15.9841379,8.17945946 15.7548276,8.25567568 15.5172414,8.32702703" id="XMLID_111_" fill="#CE9912"></path>
                    <path d="M5.17241379,8.51708108 L5.17241379,11.436 C5.39689655,11.4924324 5.62724138,11.5443243 5.86206897,11.5926486 L5.86206897,8.67372973 C5.62724138,8.62572973 5.39689655,8.57383784 5.17241379,8.51708108" id="XMLID_110_" fill="#CE9912"></path>
                    <path d="M14.137931,8.67372973 L14.137931,11.5926486 C14.3727586,11.5446486 14.6031034,11.4924324 14.8275862,11.4363243 L14.8275862,8.51740541 C14.6031034,8.57351351 14.3727586,8.62572973 14.137931,8.67372973" id="XMLID_109_" fill="#CE9912"></path>
                    <path d="M6.89655172,8.85697297 L6.89655172,11.7758919 C7.12310345,11.8096216 7.35275862,11.8397838 7.5862069,11.8660541 L7.5862069,8.94713514 C7.35275862,8.92086486 7.12310345,8.8907027 6.89655172,8.85697297" id="XMLID_108_" fill="#CE9912"></path>
                    <path d="M12.4137931,8.94713514 L12.4137931,11.8660541 C12.6472414,11.8397838 12.8768966,11.8096216 13.1034483,11.7758919 L13.1034483,8.85697297 C12.8768966,8.8907027 12.6472414,8.92086486 12.4137931,8.94713514" id="XMLID_107_" fill="#CE9912"></path>
                    <path d="M8.62068966,9.03697297 L8.62068966,11.9558919 C8.84827586,11.9701622 9.07827586,11.9808649 9.31034483,11.988 L9.31034483,9.06908108 C9.07827586,9.06194595 8.84827586,9.05124324 8.62068966,9.03697297" id="XMLID_106_" fill="#CE9912"></path>
                    <path d="M10.6896552,9.06908108 L10.6896552,11.988 C10.9217241,11.9811892 11.1517241,11.9701622 11.3793103,11.9558919 L11.3793103,9.03697297 C11.1517241,9.05124324 10.9217241,9.06194595 10.6896552,9.06908108" id="XMLID_105_" fill="#CE9912"></path>
                </g>
                <g id="coin" transform="translate(10.000000, 10.000000)" fill-rule="nonzero">
                    <path d="M20,4.54054054 C20,7.04821622 15.5227586,9.08108108 10,9.08108108 C4.47724138,9.08108108 0,7.04821622 0,4.54054054 C0,2.03286486 4.47724138,0 10,0 C15.5227586,0 20,2.03286486 20,4.54054054" id="XMLID_120_" fill="#FCC62D"></path>
                    <path d="M10,7.78378378 C4.73758621,7.78378378 1.37931034,5.86281081 1.37931034,4.54054054 C1.37931034,3.21827027 4.73758621,0.972972973 10,0.972972973 C15.2624138,0.972972973 18.6206897,3.21827027 18.6206897,4.54054054 C18.6206897,5.86281081 15.2624138,7.78378378 10,7.78378378" id="XMLID_119_" fill="#FFD949"></path>
                    <path d="M12.9451724,4.77178378 C13.2889655,4.70335135 13.4906897,4.50389189 13.4162069,4.27654054 L13.3368966,4.03362162 C13.2782759,3.85524324 13.0513793,3.70605405 12.7734483,3.63210811 C12.3958621,2.87221622 11.4317241,2.59718919 10,2.59718919 C9.93206897,2.59718919 9.86551724,2.59848649 9.80034483,2.60108108 C9.31172414,2.62021622 8.82413793,2.57545946 8.4437931,2.44475676 C8.28896552,2.39156757 8.16275862,2.33578378 8.07931034,2.27772973 C8.04137931,2.25178378 7.95034483,2.26832432 7.95034483,2.30140541 C7.95034483,2.35913514 7.95482759,2.42756757 7.96827586,2.50313514 C8.02034483,2.7972973 7.95827586,2.75318919 7.64896552,3.0467027 C7.46931034,3.2172973 7.32655172,3.41481081 7.22310345,3.63275676 C6.94655172,3.70702703 6.72103448,3.85589189 6.66310345,4.03362162 L6.58344828,4.27654054 C6.50931034,4.50421622 6.71068966,4.70367568 7.05448276,4.77178378 C7.15275862,5.35297297 7.57275862,5.86475676 8.48965517,6.14594595 L8.43931034,6.55491892 C8.4262069,6.66421622 8.32551724,6.76540541 8.17965517,6.8147027 L6.33103448,7.44227027 C7.41068966,7.65535135 8.64137931,7.78378378 10,7.78378378 C11.3393103,7.78378378 12.5544828,7.65891892 13.6231034,7.45167568 L11.8148276,6.81567568 C11.6717241,6.76540541 11.5737931,6.66518919 11.5606897,6.55783784 L11.5103448,6.14594595 C12.4268966,5.86475676 12.8468966,5.35297297 12.9451724,4.77178378" id="XMLID_118_" fill="#F0C41B"></path>
                    <path d="M10,9.08108108 C4.47724138,9.08108108 0,7.04821622 0,4.54054054 L0,7.45945946 C0,9.96713514 4.47724138,12 10,12 C15.5227586,12 20,9.96713514 20,7.45945946 L20,4.54054054 C20,7.04821622 15.5227586,9.08108108 10,9.08108108" id="XMLID_117_" fill="#E4AF18"></path>
                    <path d="M1.03448276,6.552 L1.03448276,9.47091892 C1.23827586,9.65772973 1.46793103,9.83740541 1.72413793,10.0086486 L1.72413793,7.08972973 C1.46793103,6.91848649 1.23827586,6.73881081 1.03448276,6.552" id="XMLID_116_" fill="#CE9912"></path>
                    <path d="M18.2758621,7.08940541 L18.2758621,10.0083243 C18.532069,9.83740541 18.7617241,9.65740541 18.9655172,9.47059459 L18.9655172,6.55167568 C18.7617241,6.73881081 18.532069,6.91848649 18.2758621,7.08940541" id="XMLID_115_" fill="#CE9912"></path>
                    <path d="M2.4137931,7.49708108 L2.4137931,10.416 C2.63172414,10.5311351 2.86172414,10.6410811 3.10344828,10.7458378 L3.10344828,7.82691892 C2.86172414,7.72216216 2.63172414,7.61221622 2.4137931,7.49708108" id="XMLID_114_" fill="#CE9912"></path>
                    <path d="M16.8965517,7.82691892 L16.8965517,10.7458378 C17.1382759,10.6410811 17.3682759,10.5311351 17.5862069,10.416 L17.5862069,7.49708108 C17.3682759,7.61221622 17.1382759,7.72216216 16.8965517,7.82691892" id="XMLID_113_" fill="#CE9912"></path>
                    <path d="M3.79310345,8.09935135 L3.79310345,11.0182703 C4.01586207,11.0983784 4.24517241,11.1745946 4.48275862,11.2462703 L4.48275862,8.32735135 C4.24517241,8.25567568 4.01586207,8.17945946 3.79310345,8.09935135" id="XMLID_112_" fill="#CE9912"></path>
                    <path d="M15.5172414,8.32702703 L15.5172414,11.2459459 C15.7548276,11.1745946 15.9841379,11.0980541 16.2068966,11.0179459 L16.2068966,8.09902703 C15.9841379,8.17945946 15.7548276,8.25567568 15.5172414,8.32702703" id="XMLID_111_" fill="#CE9912"></path>
                    <path d="M5.17241379,8.51708108 L5.17241379,11.436 C5.39689655,11.4924324 5.62724138,11.5443243 5.86206897,11.5926486 L5.86206897,8.67372973 C5.62724138,8.62572973 5.39689655,8.57383784 5.17241379,8.51708108" id="XMLID_110_" fill="#CE9912"></path>
                    <path d="M14.137931,8.67372973 L14.137931,11.5926486 C14.3727586,11.5446486 14.6031034,11.4924324 14.8275862,11.4363243 L14.8275862,8.51740541 C14.6031034,8.57351351 14.3727586,8.62572973 14.137931,8.67372973" id="XMLID_109_" fill="#CE9912"></path>
                    <path d="M6.89655172,8.85697297 L6.89655172,11.7758919 C7.12310345,11.8096216 7.35275862,11.8397838 7.5862069,11.8660541 L7.5862069,8.94713514 C7.35275862,8.92086486 7.12310345,8.8907027 6.89655172,8.85697297" id="XMLID_108_" fill="#CE9912"></path>
                    <path d="M12.4137931,8.94713514 L12.4137931,11.8660541 C12.6472414,11.8397838 12.8768966,11.8096216 13.1034483,11.7758919 L13.1034483,8.85697297 C12.8768966,8.8907027 12.6472414,8.92086486 12.4137931,8.94713514" id="XMLID_107_" fill="#CE9912"></path>
                    <path d="M8.62068966,9.03697297 L8.62068966,11.9558919 C8.84827586,11.9701622 9.07827586,11.9808649 9.31034483,11.988 L9.31034483,9.06908108 C9.07827586,9.06194595 8.84827586,9.05124324 8.62068966,9.03697297" id="XMLID_106_" fill="#CE9912"></path>
                    <path d="M10.6896552,9.06908108 L10.6896552,11.988 C10.9217241,11.9811892 11.1517241,11.9701622 11.3793103,11.9558919 L11.3793103,9.03697297 C11.1517241,9.05124324 10.9217241,9.06194595 10.6896552,9.06908108" id="XMLID_105_" fill="#CE9912"></path>
                </g>
            </g>
        </g>
    </g>
</svg>