<?xml version="1.0" encoding="UTF-8"?>
<svg width="155px" height="116px" viewBox="0 0 155 116" version="1.1" xmlns="http://www.w3.org/2000/svg" xmlns:xlink="http://www.w3.org/1999/xlink">
    <!-- Generator: Sketch 46.2 (44496) - http://www.bohemiancoding.com/sketch -->
    <title>logo</title>
    <desc>Created with Sketch.</desc>
    <defs>
        <filter x="-4.8%" y="-4.6%" width="109.5%" height="113.9%" filterUnits="objectBoundingBox" id="filter-1">
            <feOffset dx="0" dy="2" in="SourceAlpha" result="shadowOffsetOuter1"></feOffset>
            <feGaussianBlur stdDeviation="2" in="shadowOffsetOuter1" result="shadowBlurOuter1"></feGaussianBlur>
            <feColorMatrix values="0 0 0 0 0   0 0 0 0 0   0 0 0 0 0  0 0 0 0.5 0" type="matrix" in="shadowBlurOuter1" result="shadowMatrixOuter1"></feColorMatrix>
            <feMerge>
                <feMergeNode in="shadowMatrixOuter1"></feMergeNode>
                <feMergeNode in="SourceGraphic"></feMergeNode>
            </feMerge>
        </filter>
        <polygon id="path-2" points="147 108 0 108 0 1.20103101e-14 147 0"></polygon>
    </defs>
    <g id="Page-1" stroke="none" stroke-width="1" fill="none" fill-rule="evenodd">
        <g id="Login-2" transform="translate(-110.000000, -72.000000)">
            <g id="logo" transform="translate(114.000000, 74.000000)">
                <g id="Page-1" filter="url(#filter-1)">
                    <mask id="mask-3" fill="white">
                        <use xlink:href="#path-2"></use>
                    </mask>
                    <g id="Clip-2"></g>
                    <path d="M16.6016863,35.6894075 L11.9940185,35.6894075 C10.8895016,35.1565405 9.71457385,34.8784862 8.48153598,34.8784862 C6.37514932,34.8784862 4.57203823,35.6315147 3.07135437,37.1265847 C1.54734163,38.6102451 0.779609079,40.4298526 0.779609079,42.5507559 L0.779609079,56.9804207 C0.779609079,58.4057658 1.16389952,59.7389896 1.90830318,60.9555827 C1.14014647,61.6625505 0.593402123,62.4857264 0.268070151,63.4360973 C0.162878067,63.7492253 0.0818631949,64.0733402 0.0352054154,64.3868908 C0.0114523641,64.4794347 0,64.5833881 0,64.6873415 L0,64.7921401 L0,64.8614424 C0,65.8354775 0.19765932,66.7279557 0.581949758,67.5502864 C0.872500476,68.1296366 1.25679091,68.6633487 1.73354859,69.1383228 L2.0474282,69.381726 C1.21013313,70.6684665 0.779609079,72.07057 0.779609079,73.5893042 L0.779609079,77.4596676 C0.779609079,79.569584 1.54734163,81.3773594 3.07135437,82.895671 C4.57203823,84.3911635 6.37514932,85.1327824 8.48153598,85.1327824 C10.6218556,85.1327824 12.4368432,84.3911635 13.9371029,82.895671 C15.4615398,81.3773594 16.2288482,79.569584 16.2288482,77.4596676 L16.2288482,73.5893042 C16.2288482,71.4793877 15.4729922,69.6830219 13.9718841,68.1879519 C12.4949533,66.6696403 10.7032946,65.9047798 8.58587975,65.8815382 C6.88753657,65.8582966 6.02648846,65.846887 6.00273541,65.846887 C5.293113,65.846887 4.94445214,65.5920744 4.94445214,65.070617 C4.94445214,64.5719786 5.27020827,64.2939243 5.9331729,64.2474411 L6.07314624,64.2474411 C6.29413445,64.2706827 6.5036703,64.3285755 6.67757657,64.4215419 C7.29430758,64.5833881 7.89958623,64.6526904 8.48153598,64.6526904 C10.6218556,64.6526904 12.4368432,63.9110715 13.9371029,62.4164241 C15.4615398,60.8976899 16.2288482,59.089492 16.2288482,56.9804207 L16.2288482,42.5507559 C16.2288482,41.4727674 15.9964076,40.418443 15.5425547,39.3987698 L16.6016863,39.3987698 L16.6016863,35.6894075 Z M6.60801406,72.9047328 C6.60801406,72.383698 6.79422101,71.9315429 7.15518256,71.54869 C7.52717231,71.1899239 7.96914873,71.0044136 8.48153598,71.0044136 C9.02785617,71.0044136 9.48170911,71.1899239 9.85369886,71.54869 C10.2146604,71.9315429 10.4008674,72.383698 10.4008674,72.9047328 L10.4008674,78.1442389 C10.4008674,78.6656963 10.2146604,79.1060193 9.85369886,79.465208 C9.48170911,79.8243967 9.02785617,80.0094845 8.48153598,80.0094845 C7.96914873,80.0094845 7.52717231,79.8243967 7.15518256,79.465208 C6.79422101,79.1060193 6.60801406,78.6656963 6.60801406,78.1442389 L6.60801406,72.9047328 Z M26.0006839,34.84299 C23.8836931,34.84299 22.0687055,35.5968636 20.5451169,37.0919335 C19.0440089,38.5988356 18.2996053,40.418443 18.2996053,42.5161048 L18.2996053,48.2876326 L24.093229,48.2876326 L24.093229,41.8437881 C24.093229,41.3219082 24.2908883,40.8820077 24.6743304,40.5223965 C25.035292,40.1513757 25.4772684,39.9776974 26.0006839,39.9776974 C26.5240993,39.9776974 26.9783764,40.1513757 27.3618185,40.5223965 C27.7342324,40.8820077 27.908987,41.3219082 27.908987,41.8437881 L27.908987,47.302188 L24.1975728,49.4121044 C23.4412926,49.8642596 22.941206,50.176965 22.6968889,50.3624753 C22.0339243,50.8146305 21.4523987,51.2896047 20.9285591,51.7878205 C19.5211908,53.1438633 18.671595,54.6507653 18.403949,56.308104 C18.3343865,56.7137759 18.2996053,57.0966288 18.2996053,57.4553949 L18.2996053,62.8567471 C18.2996053,64.3513945 18.6953481,65.7192694 19.4978619,66.9713588 C20.2889233,68.1879519 21.3357542,69.1150812 22.6273264,69.7527467 C23.6974862,70.2742042 24.8257561,70.5290168 26.0006839,70.5290168 C27.1641592,70.5290168 28.2695244,70.2742042 29.3396842,69.7527467 L33.737392,69.7527467 L33.737392,42.5161048 C33.737392,40.418443 32.9811118,38.5988356 31.4570991,37.0919335 C29.9559911,35.5968636 28.1418518,34.84299 26.0006839,34.84299 L26.0006839,34.84299 Z M27.8390004,63.9803737 C27.7694379,64.2474411 27.6532176,64.5022537 27.4670106,64.7228378 L27.3974481,64.7921401 L27.2689271,64.9311672 L27.129378,65.0355432 L26.9894046,65.1399192 L26.8502796,65.2324631 L26.6878257,65.2671143 L26.4782898,65.3364166 L26.3730978,65.3719129 L26.0006839,65.406564 C25.4772684,65.406564 25.035292,65.2210536 24.6743304,64.8614424 C24.2908883,64.5022537 24.093229,64.0619307 24.093229,63.5404733 L24.093229,58.7539675 C24.0465712,58.325054 24.150915,57.8259931 24.3952321,57.258475 C24.8605374,56.0993521 25.7919963,55.1375716 27.1993646,54.3727111 L27.5713544,54.1639591 L27.908987,53.9670392 L27.908987,63.5404733 C27.908987,63.679923 27.885234,63.8185276 27.8390004,63.9803737 L27.8390004,63.9803737 Z M55.1083517,34.84299 C53.3862554,34.84299 52.0255449,35.3297962 51.0245235,36.3038313 C50.5244369,36.7788055 50.2105573,37.2542023 50.070584,37.7291764 C49.2328647,35.805193 47.6978238,34.84299 45.4637645,34.84299 C44.2888368,34.84299 43.2068004,35.1332989 42.2299562,35.6894075 C41.9385572,35.8749178 41.6594588,36.0714152 41.4151417,36.2687576 C41.3222503,36.3384825 41.2526878,36.3963752 41.2056059,36.4424359 C41.1593722,36.4889191 41.1479199,36.5239929 41.1708246,36.5472345 L41.1708246,35.5968636 L35.4471875,35.5968636 L35.4471875,69.7527467 L41.2412354,69.7527467 L41.2412354,41.8784393 C41.2412354,41.3569819 41.4388948,40.9048267 41.8223369,40.5223965 C42.1832984,40.1513757 42.6248507,39.9776974 43.1486903,39.9776974 C43.6721057,39.9776974 44.1259587,40.1513757 44.509825,40.5223965 C44.8818147,40.9048267 45.0565693,41.3569819 45.0565693,41.8784393 L45.0565693,69.7527467 L50.9201797,69.7527467 L50.9201797,41.8784393 C50.9201797,41.3569819 51.1063867,40.9048267 51.466924,40.5223965 C51.8507903,40.1513757 52.3046433,39.9776974 52.8280587,39.9776974 C53.3514742,39.9776974 53.7934506,40.1513757 54.1544121,40.5223965 C54.5493066,40.9048267 54.7363619,41.3569819 54.7363619,41.8784393 L54.7363619,69.7527467 L60.5291373,69.7527467 L60.5291373,42.5507559 C60.5291373,37.4160485 58.7264504,34.84299 55.1083517,34.84299 L55.1083517,34.84299 Z M69.9404356,34.84299 C67.8234449,34.84299 66.0084573,35.5968636 64.4848687,37.0919335 C62.9837607,38.5988356 62.239357,40.418443 62.239357,42.5161048 L62.239357,62.8567471 C62.239357,64.9658184 62.9837607,66.7740163 64.4848687,68.2927505 C66.0084573,69.7873979 67.8234449,70.5290168 69.9404356,70.5290168 C72.0816035,70.5290168 73.8957428,69.7873979 75.3968508,68.2927505 C76.9204394,66.7740163 77.6771437,64.9658184 77.6771437,62.8567471 L77.6771437,59.2919053 L71.8483146,59.2919053 L71.8483146,63.5404733 C71.8483146,64.0619307 71.6739842,64.5022537 71.3015703,64.8614424 C70.917704,65.2210536 70.463851,65.406564 69.9404356,65.406564 C69.4170201,65.406564 68.9750437,65.2210536 68.6140822,64.8614424 C68.2306401,64.5022537 68.0329807,64.0619307 68.0329807,63.5404733 L68.0329807,54.1639591 L70.3153945,54.1639591 L77.6771437,54.1639591 L77.6771437,42.5161048 C77.6771437,40.418443 76.9204394,38.5988356 75.3968508,37.0919335 C73.8957428,35.5968636 72.0816035,34.84299 69.9404356,34.84299 L69.9404356,34.84299 Z M68.0329807,48.4617335 L68.0329807,41.8437881 C68.0329807,41.3219082 68.2306401,40.8820077 68.6140822,40.5223965 C68.9750437,40.1513757 69.4170201,39.9776974 69.9404356,39.9776974 C70.463851,39.9776974 70.917704,40.1513757 71.3015703,40.5223965 C71.6739842,40.8820077 71.8483146,41.3219082 71.8483146,41.8437881 L71.8483146,48.4617335 L68.0329807,48.4617335 Z M44.9042953,101.011034 C44.9042953,101.532491 44.7291165,101.973237 44.3571268,102.332426 C43.9736847,102.692037 43.5194076,102.877547 42.9959921,102.877547 C42.4725767,102.877547 42.0306002,102.692037 41.6696387,102.332426 C41.2861966,101.973237 41.0885372,101.532491 41.0885372,101.011034 L41.0885372,79.3147713 C41.0885372,78.7928914 41.2861966,78.3525683 41.6696387,77.9933797 C42.0306002,77.6223589 42.4725767,77.4482581 42.9959921,77.4482581 C43.5194076,77.4482581 43.9736847,77.6223589 44.3571268,77.9933797 C44.7291165,78.3525683 44.9042953,78.7928914 44.9042953,79.3147713 L44.9042953,85.7011456 L50.7327003,85.7011456 L50.7327003,79.987088 C50.7327003,77.8890037 49.9764201,76.0698188 48.4524073,74.5629167 C46.9512993,73.0674242 45.13716,72.3139731 42.9959921,72.3139731 C40.8790014,72.3139731 39.0640138,73.0674242 37.5404252,74.5629167 C36.0393172,76.0698188 35.2949135,77.8890037 35.2949135,79.987088 L35.2949135,100.32773 C35.2949135,102.436379 36.0393172,104.244577 37.5404252,105.763734 C39.0640138,107.258381 40.8790014,108 42.9959921,108 C45.13716,108 46.9512993,107.258381 48.4524073,105.763734 C49.9764201,104.244577 50.7327003,102.436379 50.7327003,100.32773 L50.7327003,96.7628885 L44.9042953,96.7628885 L44.9042953,101.011034 Z M60.1435744,72.3139731 C58.0270078,72.3139731 56.2120202,73.0674242 54.6880075,74.5629167 C53.1868995,76.0698188 52.4424958,77.8890037 52.4424958,79.987088 L52.4424958,100.32773 C52.4424958,102.436379 53.1868995,104.244577 54.6880075,105.763734 C56.2120202,107.258381 58.0270078,108 60.1435744,108 C62.2847423,108 64.0993058,107.258381 65.6004138,105.763734 C67.1240024,104.244577 67.8807067,102.436379 67.8807067,100.32773 L67.8807067,79.987088 C67.8807067,77.8890037 67.1240024,76.0698188 65.6004138,74.5629167 C64.0993058,73.0674242 62.2847423,72.3139731 60.1435744,72.3139731 L60.1435744,72.3139731 Z M58.2365437,79.3147713 C58.2365437,78.7928914 58.4337788,78.3525683 58.8176451,77.9933797 C59.1781825,77.6223589 59.6201589,77.4482581 60.1435744,77.4482581 C60.667414,77.4482581 61.1212669,77.6223589 61.5051332,77.9933797 C61.877123,78.3525683 62.0518776,78.7928914 62.0518776,79.3147713 L62.0518776,101.011034 C62.0518776,101.532491 61.877123,101.973237 61.5051332,102.332426 C61.1212669,102.692037 60.667414,102.877547 60.1435744,102.877547 C59.6201589,102.877547 59.1781825,102.692037 58.8176451,102.332426 C58.4337788,101.973237 58.2365437,101.532491 58.2365437,101.011034 L58.2365437,79.3147713 Z M79.5718738,72.3139731 C78.4202749,72.3139731 77.349691,72.6038595 76.3728467,73.1603906 C76.0818719,73.345901 75.8027735,73.5423983 75.5584564,73.7397408 C75.4651408,73.8094657 75.3955783,73.8673584 75.3489206,73.9134191 C75.3022628,73.9599023 75.2912346,73.9949761 75.3137151,74.0177951 L75.3137151,73.0674242 L69.5905022,73.0674242 L69.5905022,107.22373 L75.384126,107.22373 L75.384126,79.3494225 C75.384126,78.8275425 75.5817853,78.3753874 75.9652274,77.9933797 C76.326189,77.6223589 76.7681654,77.4482581 77.2915808,77.4482581 C77.8149963,77.4482581 78.2688492,77.6223589 78.6527155,77.9933797 C79.0251294,78.3753874 79.1994598,78.8275425 79.1994598,79.3494225 L79.1994598,107.22373 L85.028289,107.22373 L85.028289,80.0217391 C85.028289,74.8870316 83.2133014,72.3139731 79.5718738,72.3139731 L79.5718738,72.3139731 Z M94.4395873,72.3139731 C92.3225966,72.3139731 90.5076089,73.0674242 88.9835962,74.5629167 C87.4829123,76.0698188 86.7380845,77.8890037 86.7380845,79.987088 L86.7380845,100.32773 C86.7380845,102.436379 87.4829123,104.244577 88.9835962,105.763734 C90.5076089,107.258381 92.3225966,108 94.4395873,108 C96.580331,108 98.3948945,107.258381 99.8955783,105.763734 C101.419591,104.244577 102.176295,102.436379 102.176295,100.32773 L102.176295,96.7628885 L96.3474663,96.7628885 L96.3474663,101.011034 C96.3474663,101.532491 96.1727117,101.973237 95.8002978,102.332426 C95.4168557,102.692037 94.9630027,102.877547 94.4395873,102.877547 C93.9157476,102.877547 93.4741954,102.692037 93.1132338,102.332426 C92.7293676,101.973237 92.5321324,101.532491 92.5321324,101.011034 L92.5321324,91.6345197 L96.018741,91.6345197 L102.176295,91.6345197 L102.176295,79.987088 C102.176295,77.8890037 101.419591,76.0698188 99.8955783,74.5629167 C98.3948945,73.0674242 96.580331,72.3139731 94.4395873,72.3139731 L94.4395873,72.3139731 Z M92.5321324,85.9327167 L92.5321324,79.3147713 C92.5321324,78.7928914 92.7293676,78.3525683 93.1132338,77.9933797 C93.4741954,77.6223589 93.9157476,77.4482581 94.4395873,77.4482581 C94.9630027,77.4482581 95.4168557,77.6223589 95.8002978,77.9933797 C96.1727117,78.3525683 96.3474663,78.7928914 96.3474663,79.3147713 L96.3474663,85.9327167 L92.5321324,85.9327167 Z M113.495473,101.011034 C113.495473,101.532491 113.320718,101.973237 112.948304,102.332426 C112.564862,102.692037 112.110585,102.877547 111.58717,102.877547 C111.063754,102.877547 110.621778,102.692037 110.260816,102.332426 C109.877374,101.973237 109.679715,101.532491 109.679715,101.011034 L109.679715,79.3147713 C109.679715,78.7928914 109.877374,78.3525683 110.260816,77.9933797 C110.621778,77.6223589 111.063754,77.4482581 111.58717,77.4482581 C112.110585,77.4482581 112.564862,77.6223589 112.948304,77.9933797 C113.320718,78.3525683 113.495473,78.7928914 113.495473,79.3147713 L113.495473,85.7011456 L119.323878,85.7011456 L119.323878,79.987088 C119.323878,77.8890037 118.567598,76.0698188 117.043585,74.5629167 C115.542477,73.0674242 113.728337,72.3139731 111.58717,72.3139731 C109.470179,72.3139731 107.655191,73.0674242 106.131603,74.5629167 C104.630495,76.0698188 103.886091,77.8890037 103.886091,79.987088 L103.886091,100.32773 C103.886091,102.436379 104.630495,104.244577 106.131603,105.763734 C107.655191,107.258381 109.470179,108 111.58717,108 C113.728337,108 115.542477,107.258381 117.043585,105.763734 C118.567598,104.244577 119.323878,102.436379 119.323878,100.32773 L119.323878,96.7628885 L113.495473,96.7628885 L113.495473,101.011034 Z M139.263716,72.3139731 C137.146725,72.3139731 135.331738,73.0674242 133.807725,74.5629167 C132.306617,76.0698188 131.562213,77.8890037 131.562213,79.987088 L131.562213,85.7586158 L137.356261,85.7586158 L137.356261,79.3147713 C137.356261,78.7928914 137.55392,78.3525683 137.937363,77.9933797 C138.2979,77.6223589 138.739876,77.4482581 139.263716,77.4482581 C139.787131,77.4482581 140.240984,77.6223589 140.624427,77.9933797 C140.99684,78.3525683 141.171595,78.7928914 141.171595,79.3147713 L141.171595,84.7731712 L137.460605,86.8830876 C136.703901,87.3352427 136.203814,87.6479482 135.959497,87.8334585 C135.296532,88.2856137 134.715007,88.7605878 134.191591,89.2588036 C132.784223,90.6148465 131.934627,92.1217485 131.666557,93.7790872 C131.596995,94.1843366 131.562213,94.5671894 131.562213,94.9263781 L131.562213,100.32773 C131.562213,101.822378 131.957956,103.190253 132.76047,104.442342 C133.551531,105.658935 134.598362,106.586064 135.889934,107.22373 C136.960518,107.745187 138.088788,108 139.263716,108 C140.427191,108 141.532557,107.745187 142.602292,107.22373 L147,107.22373 L147,79.987088 C147,77.8890037 146.24372,76.0698188 144.719707,74.5629167 C143.219023,73.0674242 141.40446,72.3139731 139.263716,72.3139731 L139.263716,72.3139731 Z M141.102033,101.451357 C141.03247,101.718002 140.915826,101.973237 140.729619,102.193821 L140.660056,102.263123 L140.531535,102.401728 L140.39241,102.506526 L140.252437,102.61048 L140.113312,102.703446 L139.950434,102.738097 L139.740898,102.8074 L139.635706,102.842896 L139.263716,102.877547 C138.739876,102.877547 138.2979,102.692037 137.937363,102.332426 C137.55392,101.973237 137.356261,101.532491 137.356261,101.011034 L137.356261,96.2249507 C137.309179,95.7960372 137.413947,95.2969762 137.65784,94.7294582 C138.123145,93.5703352 139.054604,92.6085548 140.461973,91.8432717 L140.833962,91.6345197 L141.171595,91.4380223 L141.171595,101.011034 C141.171595,101.150484 141.148266,101.289511 141.102033,101.451357 L141.102033,101.451357 Z M122.907195,59.2919053 L128.630408,59.2919053 L128.630408,61.6862147 L128.630408,64.4887313 L128.630408,73.1020753 L130.538711,73.1020753 L130.538711,78.7696497 L128.630408,78.7696497 L128.630408,107.22373 L122.907195,107.22373 L122.907195,78.7696497 L121.033673,78.7696497 L121.033673,73.1020753 L122.907195,73.1020753 L122.907195,64.4887313 L122.907195,61.6862147 L122.907195,59.2919053 Z M92.2496408,3.90966288 C92.2496408,3.52131656 92.5643687,3.20903371 92.9575665,3.20903371 L107.626772,3.20903371 C108.01997,3.20903371 108.333426,3.52131656 108.333426,3.90966288 L108.333426,4.09813128 C108.333426,4.5067612 108.01997,4.80340877 107.626772,4.80340877 L92.9575665,4.80340877 C92.5804868,4.80340877 92.2496408,4.49112593 92.2496408,4.09813128 L92.2496408,3.90966288 Z M100.292169,67.9449714 C98.5187497,67.9449714 97.071086,66.5027233 97.071086,64.7359376 C97.071086,62.969152 98.5187497,61.5269039 100.292169,61.5269039 C102.068983,61.5269039 103.513253,62.969152 103.513253,64.7359376 C103.513253,66.5027233 102.068983,67.9449714 100.292169,67.9449714 L100.292169,67.9449714 Z M114.775593,70.620293 C114.775593,70.620293 121.1974,70.620293 121.1974,64.1861677 L121.1974,6.4134191 C121.1974,0 114.775593,0 114.775593,0 L85.8282578,0 C85.8282578,0 79.3869393,0 79.3869393,6.4134191 L79.3869393,64.1861677 C79.3869393,70.620293 85.8282578,70.620293 85.8282578,70.620293 L114.775593,70.620293 Z M112.765066,32.3903653 C113.066645,32.0911823 113.216374,31.7172035 113.216374,31.2671612 C113.216374,30.8023289 113.067069,30.419476 112.765066,30.120293 L110.48647,27.8738849 C110.169621,27.558644 109.792966,27.4001784 109.359048,27.4001784 C108.925131,27.4001784 108.548476,27.558644 108.232051,27.8738849 L98.0127248,38.0296272 L92.352712,32.3903653 C92.0354391,32.0751244 91.6604803,31.9162363 91.2252904,31.9162363 C90.7913731,31.9162363 90.41599,32.0751244 90.0978688,32.3903653 L87.8192725,34.6363508 C87.5189661,34.9359564 87.3688129,35.3188093 87.3688129,35.7849094 C87.3688129,36.2336839 87.5189661,36.6076627 87.8192725,36.9081134 L96.8853032,45.9406517 C97.2038486,46.2558926 97.5788075,46.4143582 98.0127248,46.4143582 C98.4648811,46.4143582 98.8474749,46.2558926 99.1655962,45.9406517 L112.765066,32.3903653 Z M82.6080227,42.9086769 C82.907905,43.5962062 83.2506276,44.2697906 83.637463,44.92943 C85.3574384,47.8650578 87.6903274,50.1900648 90.6365541,51.9027608 C93.5849016,53.616302 96.8030159,54.4732839 100.293018,54.4732839 C103.78302,54.4732839 107.001134,53.616302 109.947785,51.9027608 C112.894436,50.1900648 115.228173,47.8650578 116.948148,44.92943 C117.343043,44.2545779 117.692552,43.5657808 117.996676,42.8621936 L117.996676,59.2919053 L82.6080227,59.2919053 L82.6080227,42.9086769 Z M116.948148,25.690863 C115.228173,22.7552352 112.895284,20.4314959 109.947785,18.7175322 C107.001134,17.003991 103.78302,16.1470091 100.293018,16.1470091 C96.8030159,16.1470091 93.5849016,17.003991 90.6382507,18.7175322 C87.6903274,20.4302282 85.3574384,22.7552352 83.637463,25.690863 C83.2506276,26.350925 82.907905,27.0245093 82.6080227,27.7116161 L82.6080227,8.01117476 L117.996676,8.01117476 L117.996676,27.7572542 C117.692552,27.0540896 117.343043,26.3652925 116.948148,25.690863 L116.948148,25.690863 Z M10.4008674,57.6641469 C10.4008674,58.1856043 10.2146604,58.6259273 9.85369886,58.9855385 C9.48170911,59.3561367 9.02785617,59.5302376 8.48153598,59.5302376 C7.96914873,59.5302376 7.52717231,59.3561367 7.15518256,58.9855385 C6.79422101,58.6259273 6.60801406,58.1856043 6.60801406,57.6641469 L6.60801406,41.8784393 C6.60801406,41.3569819 6.79422101,40.9166588 7.15518256,40.5456381 C7.52717231,40.1627852 7.96914873,39.9776974 8.48153598,39.9776974 C9.02785617,39.9776974 9.48170911,40.1627852 9.85369886,40.5456381 C10.2146604,40.9166588 10.4008674,41.3569819 10.4008674,41.8784393 L10.4008674,57.6641469 Z" id="Fill-1" fill="#FFFFFF" mask="url(#mask-3)"></path>
                </g>
            </g>
        </g>
    </g>
</svg>